<?xml version="1.0" encoding="UTF-8" standalone="no"?><!DOCTYPE svg PUBLIC "-//W3C//DTD SVG 1.1//EN" "http://www.w3.org/Graphics/SVG/1.1/DTD/svg11.dtd"><svg width="100%" height="100%" viewBox="0 0 2325 1193" version="1.1" xmlns="http://www.w3.org/2000/svg" xmlns:xlink="http://www.w3.org/1999/xlink" xml:space="preserve" xmlns:serif="http://www.serif.com/" style="fill-rule:evenodd;clip-rule:evenodd;stroke-linejoin:round;stroke-miterlimit:2;"><rect id="Artboard2" x="0" y="0" width="2325" height="1192.676" style="fill:none;"/><g id="Logo-red" serif:id="Logo red"><path d="M1162.5,132.093c78.042,-0.333 191.958,66.667 323.75,232.833l12.5,0l-12.25,0c28.667,39.333 62.5,83.792 77.875,104.167c65.625,87.5 227.583,249.25 395.333,249.25c194.25,0 351.708,-159 351.708,-353.25c-29.167,0 -87.25,-1.042 -122.375,0c-3.833,144.083 -122.333,232.167 -229.167,232.625c-78.042,0.333 -191.917,-66.667 -323.708,-232.792l-12.5,0l12.25,0c-28.625,-39.333 -62.5,-83.792 -77.875,-104.167c-65.833,-87.542 -227.833,-249.292 -395.542,-249.292l0,120.625Z" style="fill:url(#_Linear1);fill-rule:nonzero;"/><path d="M1681.333,419.385c0,0 -30.083,-34.875 -45.5,-54.167l-12.5,0l12.25,0c-28.625,-39.333 -62.5,-83.792 -77.875,-104.167c-8.333,-11.208 -29.75,-36.75 -29.75,-36.75l-75.875,99.333c0,0 22.583,26.75 34.083,41.292l12.5,0l-12.25,0c28.667,39.333 62.5,83.792 77.875,104.167c11.083,14.792 41.167,49.667 41.167,49.667l75.875,-99.375Z" style="fill:url(#_Linear2);fill-rule:nonzero;"/><path d="M1162.5,597.968c78.042,0.333 191.958,-66.667 323.75,-232.875l12.5,0l-12.25,0c28.667,-39.333 62.5,-83.792 77.875,-104.167c65.625,-87.5 227.583,-249.25 395.333,-249.25c194.25,-0 351.708,159.542 351.708,353.792c-29.167,0 -87.167,-0.333 -122.375,0c-3.833,-144.083 -122.333,-232.708 -229.167,-233.333c-78.042,-0.333 -191.917,66.667 -323.708,232.792l-12.5,0l12.25,0c-28.625,39.333 -62.5,83.792 -77.875,104.167c-65.625,87.5 -227.667,249.333 -395.375,249.333l-0.167,-120.458Z" style="fill:url(#_Linear3);fill-rule:nonzero;"/><path d="M1162.5,597.968c-78.042,0.333 -191.917,-66.667 -323.708,-232.792l-12.5,0l12.25,0c-28.625,-39.333 -62.5,-83.792 -77.875,-104.167c-65.458,-87.708 -227.333,-249.458 -395.167,-249.458c-194.25,0 -351.708,159.458 -351.708,353.708c29.167,-0 87.167,-0.333 122.375,-0c3.833,-144.083 122.333,-232.625 229.167,-233.083c78.042,-0.333 191.917,66.667 323.708,232.792l12.5,0l-12.25,0c28.667,39.333 62.5,83.792 77.875,104.167c65.625,87.5 227.583,249.25 395.333,249.25l0,-120.417Z" style="fill:url(#_Linear4);fill-rule:nonzero;"/><path d="M880.583,414.676c0,0 -27.458,-32.083 -41.667,-50l-12.5,0l12.25,0c-28.625,-39.333 -62.5,-83.792 -77.875,-104.167c-10.75,-14.292 -39.542,-47.875 -39.542,-47.875l-76.667,98.75c0,0 29.458,34.25 44.583,53.292l12.5,0l-12.25,0c28.667,39.333 62.5,83.792 77.875,104.167c9.583,12.75 34.625,42.333 34.625,42.333l78.667,-96.5Z" style="fill:url(#_Linear5);fill-rule:nonzero;"/><path d="M1162.5,132.093c-78.042,-0.333 -191.917,66.667 -323.708,232.792l-12.5,0l12.25,0c-28.625,39.333 -62.5,83.792 -77.875,104.167c-65.625,87.5 -227.583,249.25 -395.333,249.25c-194.083,0.208 -351.542,-158.958 -351.542,-353.083c29.167,0 87.167,0 122.375,-0.417c3.833,144.083 122.333,232.625 229.167,233.083c78.042,0.333 191.917,-66.667 323.708,-232.833l12.5,0l-12.25,0c28.667,-39.333 62.5,-83.792 77.875,-104.167c65.625,-87.5 227.583,-249.25 395.333,-249.25l0,120.458Z" style="fill:url(#_Linear6);fill-rule:nonzero;"/><path d="M1162.5,132.093c78.042,-0.333 191.958,66.667 323.75,232.833l12.5,0l-12.25,0c28.667,39.333 62.5,83.792 77.875,104.167c65.625,87.5 227.583,249.25 395.333,249.25c194.25,0 351.708,-158.958 351.708,-353.208l-122.375,0c-3.833,144.083 -122.333,232.125 -229.167,232.583c-78.042,0.333 -191.917,-66.667 -323.708,-232.792l-12.5,0l12.25,0c-28.625,-39.333 -62.5,-83.792 -77.875,-104.167c-65.833,-87.542 -227.833,-249.292 -395.542,-249.292l0,120.625Z" style="fill:url(#_Linear7);fill-rule:nonzero;"/><path d="M1681.333,419.385c0,0 -30.083,-34.875 -45.5,-54.167l-12.5,0l12.25,0c-28.625,-39.333 -62.5,-83.792 -77.875,-104.167c-8.333,-11.208 -29.75,-36.75 -29.75,-36.75l-75.875,99.333c0,0 22.583,26.75 34.083,41.292l12.5,0l-12.25,0c28.667,39.333 62.5,83.792 77.875,104.167c11.083,14.792 41.167,49.667 41.167,49.667l75.875,-99.375Z" style="fill:url(#_Linear8);fill-rule:nonzero;"/><path d="M1162.5,597.968c78.042,0.333 191.958,-66.667 323.75,-232.875l12.5,0l-12.25,0c28.667,-39.333 62.5,-83.792 77.875,-104.167c65.625,-87.5 227.583,-249.25 395.333,-249.25c194.25,-0 351.708,159.625 351.708,353.875l-122.375,0c-3.833,-144.083 -122.333,-232.792 -229.167,-233.333c-78.042,-0.333 -191.917,66.667 -323.708,232.792l-12.5,0l12.25,0c-28.625,39.333 -62.5,83.792 -77.875,104.167c-65.625,87.5 -227.667,249.333 -395.375,249.333l-0.167,-120.542Z" style="fill:url(#_Linear9);fill-rule:nonzero;"/><path d="M1162.5,597.968c-78.042,0.333 -191.917,-66.667 -323.708,-232.792l-12.5,0l12.25,0c-28.625,-39.333 -62.5,-83.792 -77.875,-104.167c-65.458,-87.708 -227.333,-249.458 -395.167,-249.458c-194.25,0 -351.708,159.542 -351.708,353.792l122.375,0c3.833,-144.083 122.333,-232.75 229.167,-233.333c78.042,-0.333 191.917,66.667 323.708,232.792l12.5,0l-12.25,0c28.667,39.333 62.5,83.792 77.875,104.167c65.625,87.5 227.583,249.25 395.333,249.25l0,-120.25Z" style="fill:url(#_Linear10);fill-rule:nonzero;"/><path d="M880.583,414.676c0,0 -27.458,-32.083 -41.667,-50l-12.5,0l12.25,0c-28.625,-39.333 -62.5,-83.792 -77.875,-104.167c-10.75,-14.292 -39.542,-47.875 -39.542,-47.875l-76.667,98.75c0,0 29.458,34.25 44.583,53.292l12.5,0l-12.25,0c28.667,39.333 62.5,83.792 77.875,104.167c9.583,12.75 34.625,42.333 34.625,42.333l78.667,-96.5Z" style="fill:url(#_Linear11);fill-rule:nonzero;"/><path d="M1162.5,132.093c-78.042,-0.333 -191.917,66.667 -323.708,232.792l-12.5,0l12.25,0c-28.625,39.333 -62.5,83.792 -77.875,104.167c-65.625,87.5 -227.583,249.25 -395.333,249.25c-194.083,0.208 -351.542,-158.958 -351.542,-353l122.375,0c3.833,144.083 122.333,232.125 229.167,232.583c78.042,0.333 191.917,-66.667 323.708,-232.833l12.5,0l-12.25,0c28.667,-39.333 62.5,-83.792 77.875,-104.167c65.625,-87.5 227.583,-249.25 395.333,-249.25l0,120.458Z" style="fill:url(#_Linear12);fill-rule:nonzero;"/></g><g transform="matrix(4.166667,0,0,4.166667,-654.166667,-172.525895)"><g transform="matrix(122,0,0,122,162.884922,321.338075)"><path d="M0.493,-0.482l-0.1,0c-0.002,-0.028 -0.011,-0.051 -0.025,-0.068c-0.021,-0.026 -0.052,-0.039 -0.093,-0.039c-0.029,0 -0.053,0.007 -0.074,0.021c-0.023,0.016 -0.035,0.038 -0.035,0.065c0,0.024 0.012,0.044 0.037,0.059c0.015,0.009 0.053,0.027 0.114,0.052c0.052,0.022 0.087,0.038 0.106,0.049c0.06,0.035 0.089,0.087 0.089,0.156c0,0.065 -0.025,0.117 -0.074,0.154c-0.04,0.03 -0.091,0.044 -0.155,0.044c-0.093,0 -0.161,-0.03 -0.203,-0.091c-0.024,-0.034 -0.037,-0.08 -0.04,-0.137l0.1,0c0.004,0.042 0.015,0.073 0.034,0.095c0.026,0.029 0.062,0.043 0.11,0.043c0.035,0 0.064,-0.009 0.087,-0.026c0.022,-0.017 0.034,-0.038 0.034,-0.065c0,-0.029 -0.014,-0.053 -0.043,-0.073c-0.016,-0.011 -0.052,-0.028 -0.11,-0.053c-0.068,-0.029 -0.113,-0.054 -0.137,-0.076c-0.036,-0.033 -0.054,-0.074 -0.054,-0.123c0,-0.062 0.025,-0.11 0.074,-0.144c0.04,-0.028 0.087,-0.042 0.142,-0.042c0.048,0 0.089,0.011 0.125,0.032c0.041,0.024 0.068,0.059 0.081,0.103c0.005,0.016 0.008,0.037 0.009,0.062Z" style="fill:#029948;fill-rule:nonzero;"/></g><g transform="matrix(110,0,0,110,230.185078,321.338075)"><path d="M0.415,-0.304c-0.001,-0.018 -0.005,-0.035 -0.012,-0.052c-0.006,-0.017 -0.015,-0.031 -0.026,-0.044c-0.011,-0.012 -0.024,-0.022 -0.04,-0.03c-0.016,-0.008 -0.033,-0.012 -0.052,-0.012c-0.02,0 -0.038,0.004 -0.055,0.011c-0.016,0.007 -0.03,0.017 -0.042,0.029c-0.012,0.012 -0.021,0.027 -0.028,0.044c-0.007,0.017 -0.011,0.035 -0.012,0.054l0.266,0Zm-0.266,0.075c-0,0.02 0.003,0.039 0.008,0.058c0.006,0.019 0.014,0.035 0.025,0.049c0.011,0.014 0.026,0.025 0.043,0.034c0.017,0.008 0.038,0.012 0.062,0.012c0.033,0 0.06,-0.007 0.08,-0.022c0.02,-0.014 0.036,-0.036 0.046,-0.065l0.108,0c-0.006,0.028 -0.016,0.053 -0.031,0.075c-0.015,0.022 -0.032,0.041 -0.053,0.056c-0.021,0.015 -0.044,0.026 -0.07,0.034c-0.026,0.008 -0.052,0.011 -0.08,0.011c-0.041,0 -0.077,-0.007 -0.108,-0.02c-0.031,-0.013 -0.058,-0.032 -0.079,-0.056c-0.022,-0.024 -0.038,-0.053 -0.049,-0.086c-0.011,-0.033 -0.017,-0.07 -0.017,-0.11c0,-0.037 0.006,-0.071 0.017,-0.104c0.012,-0.033 0.028,-0.062 0.05,-0.087c0.022,-0.025 0.048,-0.045 0.078,-0.059c0.031,-0.015 0.065,-0.022 0.104,-0.022c0.041,0 0.077,0.008 0.109,0.025c0.032,0.017 0.059,0.04 0.081,0.068c0.021,0.028 0.037,0.06 0.046,0.096c0.01,0.036 0.012,0.074 0.008,0.113l-0.38,0Z" style="fill:#029948;fill-rule:nonzero;"/></g><g transform="matrix(110,0,0,110,293.545078,321.338075)"><path d="M0.06,-0.517l0.108,0l0,0.072l0.003,0c0.009,-0.013 0.018,-0.024 0.028,-0.035c0.01,-0.011 0.021,-0.02 0.034,-0.027c0.012,-0.007 0.026,-0.013 0.043,-0.017c0.016,-0.004 0.034,-0.007 0.055,-0.007c0.031,0 0.06,0.007 0.087,0.021c0.027,0.014 0.046,0.036 0.058,0.065c0.019,-0.027 0.042,-0.048 0.067,-0.063c0.025,-0.015 0.057,-0.023 0.095,-0.023c0.055,0 0.097,0.013 0.128,0.04c0.03,0.027 0.045,0.071 0.045,0.134l0,0.357l-0.114,-0l0,-0.302c0,-0.021 -0.001,-0.039 -0.002,-0.056c-0.001,-0.017 -0.005,-0.032 -0.012,-0.044c-0.006,-0.012 -0.016,-0.022 -0.028,-0.028c-0.013,-0.007 -0.03,-0.01 -0.052,-0.01c-0.039,0 -0.067,0.012 -0.084,0.036c-0.017,0.024 -0.026,0.058 -0.026,0.102l0,0.303l-0.114,-0l0,-0.332c-0,-0.036 -0.007,-0.063 -0.02,-0.082c-0.013,-0.018 -0.037,-0.027 -0.071,-0.027c-0.015,0 -0.029,0.003 -0.043,0.009c-0.014,0.006 -0.026,0.015 -0.036,0.026c-0.01,0.011 -0.019,0.025 -0.025,0.042c-0.006,0.017 -0.009,0.036 -0.009,0.057l0,0.307l-0.114,-0l0,-0.517Z" style="fill:#029948;fill-rule:nonzero;"/></g><g transform="matrix(110,0,0,110,391.445078,321.338075)"><path d="M0.493,-0.115c0,0.014 0.002,0.024 0.006,0.03c0.004,0.006 0.011,0.009 0.022,0.009l0.012,0c0.005,0 0.01,-0.001 0.016,-0.002l0,0.079c-0.004,0.001 -0.009,0.003 -0.016,0.004c-0.006,0.002 -0.013,0.003 -0.019,0.005c-0.007,0.001 -0.013,0.002 -0.02,0.003c-0.007,0.001 -0.012,0.001 -0.017,0.001c-0.023,0 -0.043,-0.005 -0.058,-0.014c-0.015,-0.009 -0.025,-0.026 -0.03,-0.049c-0.023,0.022 -0.051,0.038 -0.084,0.048c-0.033,0.01 -0.065,0.015 -0.096,0.015c-0.023,0 -0.046,-0.003 -0.067,-0.009c-0.021,-0.006 -0.04,-0.016 -0.057,-0.028c-0.016,-0.012 -0.029,-0.028 -0.039,-0.047c-0.01,-0.019 -0.014,-0.041 -0.014,-0.067c0,-0.032 0.006,-0.058 0.018,-0.078c0.012,-0.02 0.027,-0.036 0.046,-0.047c0.019,-0.011 0.04,-0.02 0.064,-0.025c0.024,-0.005 0.047,-0.009 0.072,-0.011c0.021,-0.004 0.04,-0.007 0.059,-0.009c0.019,-0.002 0.035,-0.005 0.05,-0.009c0.014,-0.004 0.026,-0.01 0.034,-0.019c0.008,-0.008 0.012,-0.021 0.013,-0.037c-0,-0.015 -0.004,-0.027 -0.011,-0.036c-0.007,-0.009 -0.016,-0.016 -0.026,-0.021c-0.01,-0.005 -0.022,-0.008 -0.035,-0.01c-0.013,-0.002 -0.025,-0.003 -0.036,-0.003c-0.032,0 -0.058,0.007 -0.079,0.02c-0.021,0.013 -0.032,0.034 -0.035,0.062l-0.114,0c0.002,-0.033 0.01,-0.061 0.024,-0.083c0.014,-0.022 0.032,-0.04 0.054,-0.053c0.022,-0.013 0.046,-0.023 0.074,-0.028c0.027,-0.005 0.055,-0.008 0.084,-0.008c0.025,0 0.05,0.003 0.075,0.008c0.025,0.005 0.047,0.014 0.067,0.026c0.02,0.012 0.036,0.027 0.048,0.046c0.012,0.019 0.018,0.042 0.018,0.07l0,0.266Zm-0.114,-0.144c-0.017,0.011 -0.039,0.018 -0.064,0.02c-0.025,0.002 -0.051,0.006 -0.076,0.011c-0.012,0.002 -0.024,0.005 -0.035,0.009c-0.011,0.004 -0.021,0.009 -0.03,0.015c-0.009,0.006 -0.016,0.015 -0.021,0.025c-0.005,0.01 -0.008,0.023 -0.008,0.037c0,0.013 0.004,0.023 0.011,0.032c0.007,0.009 0.016,0.016 0.026,0.021c0.01,0.005 0.022,0.008 0.034,0.01c0.012,0.002 0.024,0.003 0.034,0.003c0.013,0 0.026,-0.002 0.041,-0.005c0.015,-0.003 0.029,-0.009 0.042,-0.017c0.013,-0.008 0.024,-0.018 0.032,-0.03c0.009,-0.012 0.013,-0.027 0.013,-0.046l0,-0.085Z" style="fill:#029948;fill-rule:nonzero;"/></g><g transform="matrix(110,0,0,110,454.805078,321.338075)"><path d="M0.06,-0.517l0.108,0l0,0.076l0.002,0.002c0.017,-0.029 0.04,-0.051 0.068,-0.068c0.028,-0.016 0.059,-0.024 0.093,-0.024c0.057,0 0.101,0.015 0.134,0.044c0.033,0.029 0.049,0.073 0.049,0.132l0,0.355l-0.114,-0l0,-0.325c-0.001,-0.041 -0.01,-0.07 -0.026,-0.089c-0.016,-0.018 -0.041,-0.027 -0.075,-0.027c-0.019,0 -0.037,0.004 -0.052,0.011c-0.015,0.007 -0.028,0.017 -0.039,0.029c-0.011,0.012 -0.019,0.027 -0.025,0.044c-0.006,0.017 -0.009,0.034 -0.009,0.053l0,0.305l-0.114,-0l0,-0.517Z" style="fill:#029948;fill-rule:nonzero;"/></g><g transform="matrix(110,0,0,110,520.145078,321.338075)"><path d="M0.008,-0.517l0.086,0l0,-0.155l0.114,0l0,0.155l0.103,0l0,0.085l-0.103,0l0,0.276c0,0.012 0.001,0.022 0.001,0.031c0.001,0.009 0.003,0.016 0.007,0.022c0.004,0.006 0.009,0.011 0.017,0.014c0.007,0.003 0.017,0.004 0.03,0.004c0.008,0 0.016,-0 0.024,-0.001c0.008,-0 0.016,-0.002 0.024,-0.003l0,0.088c-0.013,0.001 -0.025,0.003 -0.037,0.004c-0.012,0.001 -0.024,0.002 -0.037,0.002c-0.03,0 -0.054,-0.003 -0.073,-0.009c-0.018,-0.006 -0.033,-0.014 -0.043,-0.025c-0.01,-0.011 -0.017,-0.025 -0.021,-0.042c-0.004,-0.017 -0.006,-0.036 -0.007,-0.057l0,-0.305l-0.086,0l-0,-0.085Z" style="fill:#029948;fill-rule:nonzero;"/></g><g transform="matrix(110,0,0,110,558.975078,321.338075)"><path d="M0.063,-0.714l0.114,0l0,0.108l-0.114,0l0,-0.108Zm0,0.197l0.114,0l0,0.517l-0.114,-0l0,-0.517Z" style="fill:#029948;fill-rule:nonzero;"/></g><g transform="matrix(110,0,0,110,587.685078,321.338075)"><path d="M0.514,-0l-0.112,-0l0,-0.072l-0.002,0c-0.014,0.026 -0.035,0.047 -0.062,0.063c-0.028,0.016 -0.056,0.023 -0.085,0.023c-0.068,0 -0.117,-0.017 -0.148,-0.05c-0.03,-0.034 -0.045,-0.084 -0.045,-0.152l0,-0.328l0.114,0l0,0.317c0,0.045 0.009,0.077 0.026,0.096c0.017,0.019 0.042,0.028 0.073,0.028c0.024,0 0.044,-0.004 0.06,-0.011c0.016,-0.007 0.029,-0.017 0.039,-0.029c0.01,-0.012 0.017,-0.027 0.022,-0.044c0.004,-0.017 0.007,-0.036 0.007,-0.056l0,-0.3l0.114,0l0,0.517Z" style="fill:#029948;fill-rule:nonzero;"/></g><g transform="matrix(110,0,0,110,653.025078,321.338075)"><path d="M0.146,-0.166c0.003,0.033 0.016,0.057 0.038,0.07c0.022,0.013 0.048,0.02 0.079,0.02c0.011,0 0.023,-0.001 0.036,-0.003c0.014,-0.002 0.027,-0.005 0.039,-0.009c0.012,-0.005 0.022,-0.011 0.029,-0.021c0.008,-0.009 0.011,-0.021 0.011,-0.036c-0.001,-0.015 -0.006,-0.027 -0.016,-0.036c-0.01,-0.009 -0.023,-0.017 -0.038,-0.023c-0.016,-0.006 -0.034,-0.01 -0.053,-0.014c-0.02,-0.004 -0.04,-0.008 -0.061,-0.013c-0.021,-0.005 -0.042,-0.01 -0.061,-0.017c-0.02,-0.007 -0.037,-0.016 -0.053,-0.027c-0.016,-0.011 -0.028,-0.026 -0.037,-0.043c-0.009,-0.018 -0.014,-0.04 -0.014,-0.066c0,-0.028 0.007,-0.052 0.02,-0.071c0.014,-0.019 0.031,-0.034 0.052,-0.046c0.021,-0.012 0.044,-0.02 0.07,-0.025c0.026,-0.005 0.05,-0.007 0.074,-0.007c0.027,0 0.052,0.003 0.077,0.009c0.024,0.006 0.046,0.015 0.066,0.027c0.02,0.013 0.036,0.029 0.049,0.049c0.013,0.02 0.021,0.045 0.025,0.074l-0.119,0c-0.005,-0.027 -0.018,-0.046 -0.037,-0.055c-0.02,-0.009 -0.042,-0.014 -0.068,-0.014c-0.008,0 -0.017,0.001 -0.028,0.002c-0.011,0.001 -0.021,0.004 -0.031,0.008c-0.01,0.004 -0.018,0.009 -0.024,0.016c-0.007,0.007 -0.01,0.016 -0.01,0.028c0,0.014 0.005,0.025 0.015,0.034c0.01,0.009 0.022,0.016 0.038,0.021c0.016,0.006 0.034,0.011 0.054,0.015c0.02,0.004 0.041,0.008 0.062,0.013c0.021,0.005 0.041,0.01 0.061,0.017c0.02,0.007 0.038,0.016 0.053,0.027c0.016,0.011 0.028,0.026 0.038,0.043c0.01,0.017 0.014,0.039 0.014,0.064c0,0.031 -0.007,0.057 -0.021,0.078c-0.014,0.021 -0.032,0.039 -0.055,0.052c-0.022,0.013 -0.047,0.023 -0.074,0.029c-0.027,0.006 -0.054,0.009 -0.081,0.009c-0.033,0 -0.063,-0.004 -0.09,-0.011c-0.028,-0.007 -0.052,-0.019 -0.072,-0.034c-0.02,-0.015 -0.036,-0.034 -0.048,-0.056c-0.012,-0.022 -0.018,-0.049 -0.019,-0.08l0.114,0Z" style="fill:#029948;fill-rule:nonzero;"/></g></g><g id="Layer1"><path d="M1162.5,132.093c78.042,-0.333 191.958,66.667 323.75,232.833l12.5,0l-12.25,0c28.667,39.333 62.5,83.792 77.875,104.167c65.625,87.5 227.583,249.25 395.333,249.25c194.25,0 351.708,-159 351.708,-353.25c-29.167,0 -87.25,-1.042 -122.375,0c-3.833,144.083 -122.333,232.167 -229.167,232.625c-78.042,0.333 -191.917,-66.667 -323.708,-232.792l-12.5,0l12.25,0c-28.625,-39.333 -62.5,-83.792 -77.875,-104.167c-65.833,-87.542 -227.833,-249.292 -395.542,-249.292l0,120.625Z" style="fill:url(#_Linear13);fill-rule:nonzero;"/><path d="M1681.333,419.385c0,0 -30.083,-34.875 -45.5,-54.167l-12.5,0l12.25,0c-28.625,-39.333 -62.5,-83.792 -77.875,-104.167c-8.333,-11.208 -29.75,-36.75 -29.75,-36.75l-75.875,99.333c0,0 22.583,26.75 34.083,41.292l12.5,0l-12.25,0c28.667,39.333 62.5,83.792 77.875,104.167c11.083,14.792 41.167,49.667 41.167,49.667l75.875,-99.375Z" style="fill:url(#_Linear14);fill-rule:nonzero;"/><path d="M1162.5,597.968c78.042,0.333 191.958,-66.667 323.75,-232.875l12.5,0l-12.25,0c28.667,-39.333 62.5,-83.792 77.875,-104.167c65.625,-87.5 227.583,-249.25 395.333,-249.25c194.25,-0 351.708,159.542 351.708,353.792c-29.167,0 -87.167,-0.333 -122.375,0c-3.833,-144.083 -122.333,-232.708 -229.167,-233.333c-78.042,-0.333 -191.917,66.667 -323.708,232.792l-12.5,0l12.25,0c-28.625,39.333 -62.5,83.792 -77.875,104.167c-65.625,87.5 -227.667,249.333 -395.375,249.333l-0.167,-120.458Z" style="fill:url(#_Linear15);fill-rule:nonzero;"/><path d="M1162.5,597.968c-78.042,0.333 -191.917,-66.667 -323.708,-232.792l-12.5,0l12.25,0c-28.625,-39.333 -62.5,-83.792 -77.875,-104.167c-65.458,-87.708 -227.333,-249.458 -395.167,-249.458c-194.25,0 -351.708,159.458 -351.708,353.708c29.167,-0 87.167,-0.333 122.375,-0c3.833,-144.083 122.333,-232.625 229.167,-233.083c78.042,-0.333 191.917,66.667 323.708,232.792l12.5,0l-12.25,0c28.667,39.333 62.5,83.792 77.875,104.167c65.625,87.5 227.583,249.25 395.333,249.25l0,-120.417Z" style="fill:url(#_Linear16);fill-rule:nonzero;"/><path d="M880.583,414.676c0,0 -27.458,-32.083 -41.667,-50l-12.5,0l12.25,0c-28.625,-39.333 -62.5,-83.792 -77.875,-104.167c-10.75,-14.292 -39.542,-47.875 -39.542,-47.875l-76.667,98.75c0,0 29.458,34.25 44.583,53.292l12.5,0l-12.25,0c28.667,39.333 62.5,83.792 77.875,104.167c9.583,12.75 34.625,42.333 34.625,42.333l78.667,-96.5Z" style="fill:url(#_Linear17);fill-rule:nonzero;"/><path d="M1162.5,132.093c78.042,-0.333 191.958,66.667 323.75,232.833l12.5,0l-12.25,0c28.667,39.333 62.5,83.792 77.875,104.167c65.625,87.5 227.583,249.25 395.333,249.25c194.25,0 351.708,-158.958 351.708,-353.208l-122.375,0c-3.833,144.083 -122.333,232.125 -229.167,232.583c-78.042,0.333 -191.917,-66.667 -323.708,-232.792l-12.5,0l12.25,0c-28.625,-39.333 -62.5,-83.792 -77.875,-104.167c-65.833,-87.542 -227.833,-249.292 -395.542,-249.292l0,120.625Z" style="fill:url(#_Linear18);fill-rule:nonzero;"/><path d="M1681.333,419.385c0,0 -30.083,-34.875 -45.5,-54.167l-12.5,0l12.25,0c-28.625,-39.333 -62.5,-83.792 -77.875,-104.167c-8.333,-11.208 -29.75,-36.75 -29.75,-36.75l-75.875,99.333c0,0 22.583,26.75 34.083,41.292l12.5,0l-12.25,0c28.667,39.333 62.5,83.792 77.875,104.167c11.083,14.792 41.167,49.667 41.167,49.667l75.875,-99.375Z" style="fill:url(#_Linear19);fill-rule:nonzero;"/><path d="M1162.5,597.968c78.042,0.333 191.958,-66.667 323.75,-232.875l12.5,0l-12.25,0c28.667,-39.333 62.5,-83.792 77.875,-104.167c65.625,-87.5 227.583,-249.25 395.333,-249.25c194.25,-0 351.708,159.625 351.708,353.875l-122.375,0c-3.833,-144.083 -122.333,-232.792 -229.167,-233.333c-78.042,-0.333 -191.917,66.667 -323.708,232.792l-12.5,0l12.25,0c-28.625,39.333 -62.5,83.792 -77.875,104.167c-65.625,87.5 -227.667,249.333 -395.375,249.333l-0.167,-120.542Z" style="fill:url(#_Linear20);fill-rule:nonzero;"/><path d="M1162.5,597.968c-78.042,0.333 -191.917,-66.667 -323.708,-232.792l-12.5,0l12.25,0c-28.625,-39.333 -62.5,-83.792 -77.875,-104.167c-65.458,-87.708 -227.333,-249.458 -395.167,-249.458c-194.25,0 -351.708,159.542 -351.708,353.792l122.375,0c3.833,-144.083 122.333,-232.75 229.167,-233.333c78.042,-0.333 191.917,66.667 323.708,232.792l12.5,0l-12.25,0c28.667,39.333 62.5,83.792 77.875,104.167c65.625,87.5 227.583,249.25 395.333,249.25l0,-120.25Z" style="fill:url(#_Linear21);fill-rule:nonzero;"/><path d="M880.583,414.676c0,0 -27.458,-32.083 -41.667,-50l-12.5,0l12.25,0c-28.625,-39.333 -62.5,-83.792 -77.875,-104.167c-10.75,-14.292 -39.542,-47.875 -39.542,-47.875l-76.667,98.75c0,0 29.458,34.25 44.583,53.292l12.5,0l-12.25,0c28.667,39.333 62.5,83.792 77.875,104.167c9.583,12.75 34.625,42.333 34.625,42.333l78.667,-96.5Z" style="fill:url(#_Linear22);fill-rule:nonzero;"/><path d="M1162.5,132.093c-78.042,-0.333 -191.917,66.667 -323.708,232.792l-12.5,0l12.25,0c-28.625,39.333 -62.5,83.792 -77.875,104.167c-65.625,87.5 -227.583,249.25 -395.333,249.25c-194.083,0.208 -351.542,-158.958 -351.542,-353l122.375,0c3.833,144.083 122.333,232.125 229.167,232.583c78.042,0.333 191.917,-66.667 323.708,-232.833l12.5,0l-12.25,0c28.667,-39.333 62.5,-83.792 77.875,-104.167c65.625,-87.5 227.583,-249.25 395.333,-249.25l0,120.458Z" style="fill:url(#_Linear23);fill-rule:nonzero;"/></g><defs><linearGradient id="_Linear1" x1="0" y1="0" x2="1" y2="0" gradientUnits="userSpaceOnUse" gradientTransform="matrix(1149.5,2.416667,-2.416667,1149.5,1176.166667,364.176337)"><stop offset="0" style="stop-color:#fb3c00;stop-opacity:1"/><stop offset="0.4" style="stop-color:#d50000;stop-opacity:1"/><stop offset="1" style="stop-color:#d50000;stop-opacity:1"/></linearGradient><linearGradient id="_Linear2" x1="0" y1="0" x2="1" y2="0" gradientUnits="userSpaceOnUse" gradientTransform="matrix(176.75,145.958333,-145.958333,176.75,1494,311.38467)"><stop offset="0" style="stop-color:#817e7c;stop-opacity:0"/><stop offset="0.01" style="stop-color:#817e7c;stop-opacity:0"/><stop offset="0.21" style="stop-color:#5e0000;stop-opacity:0.7"/><stop offset="0.24" style="stop-color:#5e0000;stop-opacity:0.75"/><stop offset="0.37" style="stop-color:#5e0000;stop-opacity:0.86"/><stop offset="0.52" style="stop-color:#5e0000;stop-opacity:0.9"/><stop offset="0.59" style="stop-color:#5e0000;stop-opacity:0.83"/><stop offset="0.68" style="stop-color:#5e0000;stop-opacity:0.64"/><stop offset="0.72" style="stop-color:#5e0000;stop-opacity:0.52"/><stop offset="0.74" style="stop-color:#62100f;stop-opacity:0.46"/><stop offset="0.84" style="stop-color:#734c4b;stop-opacity:0.2"/><stop offset="0.92" style="stop-color:#7d7170;stop-opacity:0.05"/><stop offset="1" style="stop-color:#817e7c;stop-opacity:0"/></linearGradient><linearGradient id="_Linear3" x1="0" y1="0" x2="1" y2="0" gradientUnits="userSpaceOnUse" gradientTransform="matrix(739,-879.5,879.5,739,1338.916667,955.176337)"><stop offset="0" style="stop-color:#d50000;stop-opacity:1"/><stop offset="0.1" style="stop-color:#d70502;stop-opacity:1"/><stop offset="0.22" style="stop-color:#dc1306;stop-opacity:1"/><stop offset="0.34" style="stop-color:#e62b0e;stop-opacity:1"/><stop offset="0.48" style="stop-color:#f24d1a;stop-opacity:1"/><stop offset="0.5" style="stop-color:#f5541c;stop-opacity:1"/><stop offset="0.55" style="stop-color:#ef4517;stop-opacity:1"/><stop offset="0.67" style="stop-color:#e4270d;stop-opacity:1"/><stop offset="0.78" style="stop-color:#dc1106;stop-opacity:1"/><stop offset="0.9" style="stop-color:#d70401;stop-opacity:1"/><stop offset="1" style="stop-color:#d50000;stop-opacity:1"/></linearGradient><linearGradient id="_Linear4" x1="0" y1="0" x2="1" y2="0" gradientUnits="userSpaceOnUse" gradientTransform="matrix(1148.708333,0,0,1148.708333,13.791667,365.051337)"><stop offset="0" style="stop-color:#f2360a;stop-opacity:1"/><stop offset="0.26" style="stop-color:#f03309;stop-opacity:1"/><stop offset="0.48" style="stop-color:#ea2807;stop-opacity:1"/><stop offset="0.69" style="stop-color:#e11604;stop-opacity:1"/><stop offset="0.87" style="stop-color:#d50000;stop-opacity:1"/><stop offset="1" style="stop-color:#d50000;stop-opacity:1"/></linearGradient><linearGradient id="_Linear5" x1="0" y1="0" x2="1" y2="0" gradientUnits="userSpaceOnUse" gradientTransform="matrix(184.833333,146.291667,-146.291667,184.833333,692.625,307.25967)"><stop offset="0" style="stop-color:#817e7c;stop-opacity:0"/><stop offset="0.01" style="stop-color:#817e7c;stop-opacity:0"/><stop offset="0.05" style="stop-color:#7e7472;stop-opacity:0.06"/><stop offset="0.09" style="stop-color:#765755;stop-opacity:0.22"/><stop offset="0.14" style="stop-color:#692726;stop-opacity:0.48"/><stop offset="0.18" style="stop-color:#5e0000;stop-opacity:0.7"/><stop offset="0.22" style="stop-color:#5e0000;stop-opacity:0.75"/><stop offset="0.37" style="stop-color:#5e0000;stop-opacity:0.86"/><stop offset="0.54" style="stop-color:#5e0000;stop-opacity:0.9"/><stop offset="0.6" style="stop-color:#5e0000;stop-opacity:0.83"/><stop offset="0.67" style="stop-color:#5e0000;stop-opacity:0.64"/><stop offset="0.71" style="stop-color:#5e0000;stop-opacity:0.52"/><stop offset="0.73" style="stop-color:#62100f;stop-opacity:0.46"/><stop offset="0.83" style="stop-color:#734c4b;stop-opacity:0.2"/><stop offset="0.92" style="stop-color:#7d7170;stop-opacity:0.05"/><stop offset="1" style="stop-color:#817e7c;stop-opacity:0"/></linearGradient><linearGradient id="_Linear6" x1="0" y1="0" x2="1" y2="0" gradientUnits="userSpaceOnUse" gradientTransform="matrix(772.458333,-850.208333,850.208333,772.458333,172.25,706.426337)"><stop offset="0" style="stop-color:#f2360a;stop-opacity:1"/><stop offset="0.01" style="stop-color:#f2360a;stop-opacity:1"/><stop offset="0.24" style="stop-color:#f3380c;stop-opacity:1"/><stop offset="0.36" style="stop-color:#f54112;stop-opacity:1"/><stop offset="0.46" style="stop-color:#f84e1d;stop-opacity:1"/><stop offset="0.54" style="stop-color:#fc5e29;stop-opacity:1"/><stop offset="0.68" style="stop-color:#f3390f;stop-opacity:1"/><stop offset="0.76" style="stop-color:#ed2200;stop-opacity:1"/><stop offset="0.9" style="stop-color:#fb3c00;stop-opacity:1"/><stop offset="1" style="stop-color:#fb3c00;stop-opacity:1"/></linearGradient><linearGradient id="_Linear7" x1="0" y1="0" x2="1" y2="0" gradientUnits="userSpaceOnUse" gradientTransform="matrix(316963.13,409.9875,-409.9875,316963.13,326627.613333,64450.193003)"><stop offset="0" style="stop-color:#fb3c00;stop-opacity:1"/><stop offset="0.4" style="stop-color:#d50000;stop-opacity:1"/><stop offset="1" style="stop-color:#d50000;stop-opacity:1"/></linearGradient><linearGradient id="_Linear8" x1="0" y1="0" x2="1" y2="0" gradientUnits="userSpaceOnUse" gradientTransform="matrix(176.75,145.958333,-145.958333,176.75,1494,311.38467)"><stop offset="0" style="stop-color:#817e7c;stop-opacity:0"/><stop offset="0.01" style="stop-color:#817e7c;stop-opacity:0"/><stop offset="0.21" style="stop-color:#5e0000;stop-opacity:0.7"/><stop offset="0.24" style="stop-color:#5e0000;stop-opacity:0.75"/><stop offset="0.37" style="stop-color:#5e0000;stop-opacity:0.86"/><stop offset="0.52" style="stop-color:#5e0000;stop-opacity:0.9"/><stop offset="0.59" style="stop-color:#5e0000;stop-opacity:0.83"/><stop offset="0.68" style="stop-color:#5e0000;stop-opacity:0.64"/><stop offset="0.72" style="stop-color:#5e0000;stop-opacity:0.52"/><stop offset="0.74" style="stop-color:#62100f;stop-opacity:0.46"/><stop offset="0.84" style="stop-color:#734c4b;stop-opacity:0.2"/><stop offset="0.92" style="stop-color:#7d7170;stop-opacity:0.05"/><stop offset="1" style="stop-color:#817e7c;stop-opacity:0"/></linearGradient><linearGradient id="_Linear9" x1="0" y1="0" x2="1" y2="0" gradientUnits="userSpaceOnUse" gradientTransform="matrix(203760.370833,-149198.38,149198.38,203760.370833,371515.7875,164710.911337)"><stop offset="0" style="stop-color:#d50000;stop-opacity:1"/><stop offset="0.1" style="stop-color:#d70502;stop-opacity:1"/><stop offset="0.22" style="stop-color:#dc1306;stop-opacity:1"/><stop offset="0.34" style="stop-color:#e62b0e;stop-opacity:1"/><stop offset="0.48" style="stop-color:#f24d1a;stop-opacity:1"/><stop offset="0.5" style="stop-color:#f5541c;stop-opacity:1"/><stop offset="0.55" style="stop-color:#ef4517;stop-opacity:1"/><stop offset="0.67" style="stop-color:#e4270d;stop-opacity:1"/><stop offset="0.78" style="stop-color:#dc1106;stop-opacity:1"/><stop offset="0.9" style="stop-color:#d70401;stop-opacity:1"/><stop offset="1" style="stop-color:#d50000;stop-opacity:1"/></linearGradient><linearGradient id="_Linear10" x1="0" y1="0" x2="1" y2="0" gradientUnits="userSpaceOnUse" gradientTransform="matrix(1148.708333,0,0,1148.708333,13.791667,365.051337)"><stop offset="0" style="stop-color:#f2360a;stop-opacity:1"/><stop offset="0.26" style="stop-color:#f03309;stop-opacity:1"/><stop offset="0.48" style="stop-color:#ea2807;stop-opacity:1"/><stop offset="0.69" style="stop-color:#e11604;stop-opacity:1"/><stop offset="0.87" style="stop-color:#d50000;stop-opacity:1"/><stop offset="1" style="stop-color:#d50000;stop-opacity:1"/></linearGradient><linearGradient id="_Linear11" x1="0" y1="0" x2="1" y2="0" gradientUnits="userSpaceOnUse" gradientTransform="matrix(184.833333,146.291667,-146.291667,184.833333,692.625,307.25967)"><stop offset="0" style="stop-color:#817e7c;stop-opacity:0"/><stop offset="0.01" style="stop-color:#817e7c;stop-opacity:0"/><stop offset="0.05" style="stop-color:#7e7472;stop-opacity:0.06"/><stop offset="0.09" style="stop-color:#765755;stop-opacity:0.22"/><stop offset="0.14" style="stop-color:#692726;stop-opacity:0.48"/><stop offset="0.18" style="stop-color:#5e0000;stop-opacity:0.7"/><stop offset="0.22" style="stop-color:#5e0000;stop-opacity:0.75"/><stop offset="0.37" style="stop-color:#5e0000;stop-opacity:0.86"/><stop offset="0.54" style="stop-color:#5e0000;stop-opacity:0.9"/><stop offset="0.6" style="stop-color:#5e0000;stop-opacity:0.83"/><stop offset="0.67" style="stop-color:#5e0000;stop-opacity:0.64"/><stop offset="0.71" style="stop-color:#5e0000;stop-opacity:0.52"/><stop offset="0.73" style="stop-color:#62100f;stop-opacity:0.46"/><stop offset="0.83" style="stop-color:#734c4b;stop-opacity:0.2"/><stop offset="0.92" style="stop-color:#7d7170;stop-opacity:0.05"/><stop offset="1" style="stop-color:#817e7c;stop-opacity:0"/></linearGradient><linearGradient id="_Linear12" x1="0" y1="0" x2="1" y2="0" gradientUnits="userSpaceOnUse" gradientTransform="matrix(212959.037917,-144202.441686,144202.441686,212959.037917,48650.1025,122484.070074)"><stop offset="0" style="stop-color:#f2360a;stop-opacity:1"/><stop offset="0.01" style="stop-color:#f2360a;stop-opacity:1"/><stop offset="0.24" style="stop-color:#f3380c;stop-opacity:1"/><stop offset="0.36" style="stop-color:#f54112;stop-opacity:1"/><stop offset="0.46" style="stop-color:#f84e1d;stop-opacity:1"/><stop offset="0.54" style="stop-color:#fc5e29;stop-opacity:1"/><stop offset="0.68" style="stop-color:#f3390f;stop-opacity:1"/><stop offset="0.76" style="stop-color:#ed2200;stop-opacity:1"/><stop offset="0.9" style="stop-color:#fb3c00;stop-opacity:1"/><stop offset="1" style="stop-color:#fb3c00;stop-opacity:1"/></linearGradient><linearGradient id="_Linear13" x1="0" y1="0" x2="1" y2="0" gradientUnits="userSpaceOnUse" gradientTransform="matrix(1149.5,2.416667,-2.416667,1149.5,1176.166667,364.176337)"><stop offset="0" style="stop-color:#fb3c00;stop-opacity:1"/><stop offset="0.4" style="stop-color:#d50000;stop-opacity:1"/><stop offset="1" style="stop-color:#d50000;stop-opacity:1"/></linearGradient><linearGradient id="_Linear14" x1="0" y1="0" x2="1" y2="0" gradientUnits="userSpaceOnUse" gradientTransform="matrix(176.75,145.958333,-145.958333,176.75,1494,311.38467)"><stop offset="0" style="stop-color:#817e7c;stop-opacity:0"/><stop offset="0.01" style="stop-color:#817e7c;stop-opacity:0"/><stop offset="0.21" style="stop-color:#5e0000;stop-opacity:0.7"/><stop offset="0.24" style="stop-color:#5e0000;stop-opacity:0.75"/><stop offset="0.37" style="stop-color:#5e0000;stop-opacity:0.86"/><stop offset="0.52" style="stop-color:#5e0000;stop-opacity:0.9"/><stop offset="0.59" style="stop-color:#5e0000;stop-opacity:0.83"/><stop offset="0.68" style="stop-color:#5e0000;stop-opacity:0.64"/><stop offset="0.72" style="stop-color:#5e0000;stop-opacity:0.52"/><stop offset="0.74" style="stop-color:#62100f;stop-opacity:0.46"/><stop offset="0.84" style="stop-color:#734c4b;stop-opacity:0.2"/><stop offset="0.92" style="stop-color:#7d7170;stop-opacity:0.05"/><stop offset="1" style="stop-color:#817e7c;stop-opacity:0"/></linearGradient><linearGradient id="_Linear15" x1="0" y1="0" x2="1" y2="0" gradientUnits="userSpaceOnUse" gradientTransform="matrix(739,-879.5,879.5,739,1338.916667,955.176337)"><stop offset="0" style="stop-color:#d50000;stop-opacity:1"/><stop offset="0.1" style="stop-color:#d70502;stop-opacity:1"/><stop offset="0.22" style="stop-color:#dc1306;stop-opacity:1"/><stop offset="0.34" style="stop-color:#e62b0e;stop-opacity:1"/><stop offset="0.48" style="stop-color:#f24d1a;stop-opacity:1"/><stop offset="0.5" style="stop-color:#f5541c;stop-opacity:1"/><stop offset="0.55" style="stop-color:#ef4517;stop-opacity:1"/><stop offset="0.67" style="stop-color:#e4270d;stop-opacity:1"/><stop offset="0.78" style="stop-color:#dc1106;stop-opacity:1"/><stop offset="0.9" style="stop-color:#d70401;stop-opacity:1"/><stop offset="1" style="stop-color:#d50000;stop-opacity:1"/></linearGradient><linearGradient id="_Linear16" x1="0" y1="0" x2="1" y2="0" gradientUnits="userSpaceOnUse" gradientTransform="matrix(1148.708333,0,0,1148.708333,13.791667,365.051337)"><stop offset="0" style="stop-color:#f2360a;stop-opacity:1"/><stop offset="0.26" style="stop-color:#f03309;stop-opacity:1"/><stop offset="0.48" style="stop-color:#ea2807;stop-opacity:1"/><stop offset="0.69" style="stop-color:#e11604;stop-opacity:1"/><stop offset="0.87" style="stop-color:#d50000;stop-opacity:1"/><stop offset="1" style="stop-color:#d50000;stop-opacity:1"/></linearGradient><linearGradient id="_Linear17" x1="0" y1="0" x2="1" y2="0" gradientUnits="userSpaceOnUse" gradientTransform="matrix(184.833333,146.291667,-146.291667,184.833333,692.625,307.25967)"><stop offset="0" style="stop-color:#817e7c;stop-opacity:0"/><stop offset="0.01" style="stop-color:#817e7c;stop-opacity:0"/><stop offset="0.05" style="stop-color:#7e7472;stop-opacity:0.06"/><stop offset="0.09" style="stop-color:#765755;stop-opacity:0.22"/><stop offset="0.14" style="stop-color:#692726;stop-opacity:0.48"/><stop offset="0.18" style="stop-color:#5e0000;stop-opacity:0.7"/><stop offset="0.22" style="stop-color:#5e0000;stop-opacity:0.75"/><stop offset="0.37" style="stop-color:#5e0000;stop-opacity:0.86"/><stop offset="0.54" style="stop-color:#5e0000;stop-opacity:0.9"/><stop offset="0.6" style="stop-color:#5e0000;stop-opacity:0.83"/><stop offset="0.67" style="stop-color:#5e0000;stop-opacity:0.64"/><stop offset="0.71" style="stop-color:#5e0000;stop-opacity:0.52"/><stop offset="0.73" style="stop-color:#62100f;stop-opacity:0.46"/><stop offset="0.83" style="stop-color:#734c4b;stop-opacity:0.2"/><stop offset="0.92" style="stop-color:#7d7170;stop-opacity:0.05"/><stop offset="1" style="stop-color:#817e7c;stop-opacity:0"/></linearGradient><linearGradient id="_Linear18" x1="0" y1="0" x2="1" y2="0" gradientUnits="userSpaceOnUse" gradientTransform="matrix(1148.916667,0,0,1149.046986,1162.5,365.072219)"><stop offset="0" style="stop-color:#07c05e;stop-opacity:1"/><stop offset="0.18" style="stop-color:#04a851;stop-opacity:1"/><stop offset="0.41" style="stop-color:#047b3c;stop-opacity:1"/><stop offset="0.54" style="stop-color:#03783b;stop-opacity:1"/><stop offset="0.87" style="stop-color:#006731;stop-opacity:1"/><stop offset="1" style="stop-color:#005829;stop-opacity:1"/></linearGradient><linearGradient id="_Linear19" x1="0" y1="0" x2="1" y2="-0.015" gradientUnits="userSpaceOnUse" gradientTransform="matrix(179.546787,144.290748,-142.107477,182.305257,1498.750927,317.632094)"><stop offset="0" style="stop-color:#817e7c;stop-opacity:0"/><stop offset="0.03" style="stop-color:#00401e;stop-opacity:0.05"/><stop offset="0.08" style="stop-color:#00401e;stop-opacity:0.46"/><stop offset="0.12" style="stop-color:#00401e;stop-opacity:0.68"/><stop offset="0.17" style="stop-color:#00401e;stop-opacity:1"/><stop offset="0.24" style="stop-color:#00361e;stop-opacity:1"/><stop offset="0.33" style="stop-color:#00361e;stop-opacity:1"/><stop offset="0.43" style="stop-color:#00391e;stop-opacity:1"/><stop offset="0.5" style="stop-color:#00361e;stop-opacity:0.85"/><stop offset="0.59" style="stop-color:#00401e;stop-opacity:0.51"/><stop offset="0.65" style="stop-color:#00401e;stop-opacity:0.36"/><stop offset="0.74" style="stop-color:#00401e;stop-opacity:0.21"/><stop offset="0.85" style="stop-color:#00401e;stop-opacity:0.05"/><stop offset="1" style="stop-color:#817e7c;stop-opacity:0"/></linearGradient><linearGradient id="_Linear20" x1="0" y1="0" x2="1" y2="0" gradientUnits="userSpaceOnUse" gradientTransform="matrix(1148.916667,0,0,1148.979255,1162.5,365.259709)"><stop offset="0" style="stop-color:#005829;stop-opacity:1"/><stop offset="0.09" style="stop-color:#005c2b;stop-opacity:1"/><stop offset="0.18" style="stop-color:#006731;stop-opacity:1"/><stop offset="0.26" style="stop-color:#047b3c;stop-opacity:1"/><stop offset="0.41" style="stop-color:#07af4e;stop-opacity:1"/><stop offset="0.57" style="stop-color:#03783b;stop-opacity:1"/><stop offset="0.68" style="stop-color:#047b3c;stop-opacity:1"/><stop offset="0.89" style="stop-color:#006731;stop-opacity:1"/><stop offset="1" style="stop-color:#005829;stop-opacity:1"/></linearGradient><linearGradient id="_Linear21" x1="0" y1="0" x2="1" y2="0" gradientUnits="userSpaceOnUse" gradientTransform="matrix(1148.708333,0,0,1148.708333,13.791667,365.051337)"><stop offset="0" style="stop-color:#079d4e;stop-opacity:1"/><stop offset="0.07" style="stop-color:#058b44;stop-opacity:1"/><stop offset="0.15" style="stop-color:#048641;stop-opacity:1"/><stop offset="0.2" style="stop-color:#058d45;stop-opacity:1"/><stop offset="0.26" style="stop-color:#079d4e;stop-opacity:1"/><stop offset="0.46" style="stop-color:#02b256;stop-opacity:1"/><stop offset="0.65" style="stop-color:#047b3c;stop-opacity:1"/><stop offset="0.83" style="stop-color:#006731;stop-opacity:1"/><stop offset="1" style="stop-color:#005829;stop-opacity:1"/></linearGradient><linearGradient id="_Linear22" x1="0" y1="0" x2="1" y2="0" gradientUnits="userSpaceOnUse" gradientTransform="matrix(184.833333,146.291667,-146.291667,184.833333,692.625,307.25967)"><stop offset="0" style="stop-color:#817e7c;stop-opacity:0"/><stop offset="0.04" style="stop-color:#00401e;stop-opacity:0.05"/><stop offset="0.08" style="stop-color:#00401e;stop-opacity:0.1"/><stop offset="0.13" style="stop-color:#00401e;stop-opacity:0.55"/><stop offset="0.18" style="stop-color:#00401e;stop-opacity:1"/><stop offset="0.25" style="stop-color:#00401e;stop-opacity:1"/><stop offset="0.37" style="stop-color:#00361e;stop-opacity:1"/><stop offset="0.47" style="stop-color:#00401e;stop-opacity:1"/><stop offset="0.55" style="stop-color:#00401e;stop-opacity:1"/><stop offset="0.61" style="stop-color:#00401e;stop-opacity:0.78"/><stop offset="0.67" style="stop-color:#00401e;stop-opacity:0.54"/><stop offset="0.75" style="stop-color:#00401e;stop-opacity:0.4"/><stop offset="0.83" style="stop-color:#00401e;stop-opacity:0.16"/><stop offset="0.92" style="stop-color:#00401e;stop-opacity:0.04"/><stop offset="1" style="stop-color:#817e7c;stop-opacity:0"/></linearGradient><linearGradient id="_Linear23" x1="0" y1="0" x2="1" y2="0" gradientUnits="userSpaceOnUse" gradientTransform="matrix(1141.666667,4.166667,-4.166667,1141.666667,12.5,362.5)"><stop offset="0" style="stop-color:#079d4e;stop-opacity:1"/><stop offset="0.03" style="stop-color:#06994c;stop-opacity:1"/><stop offset="0.07" style="stop-color:#058e46;stop-opacity:1"/><stop offset="0.14" style="stop-color:#047e3f;stop-opacity:1"/><stop offset="0.22" style="stop-color:#02783b;stop-opacity:1"/><stop offset="0.31" style="stop-color:#00803d;stop-opacity:1"/><stop offset="0.48" style="stop-color:#049f4d;stop-opacity:1"/><stop offset="0.62" style="stop-color:#049f4d;stop-opacity:1"/><stop offset="0.76" style="stop-color:#04a851;stop-opacity:1"/><stop offset="0.9" style="stop-color:#07c05e;stop-opacity:1"/><stop offset="1" style="stop-color:#07c05e;stop-opacity:1"/></linearGradient></defs></svg>